<?xml version="1.0" encoding="UTF-8" standalone="no"?>
<!-- Created with Inkscape (http://www.inkscape.org/) -->

<svg
   width="121.946mm"
   height="121.946mm"
   viewBox="0 0 121.946 121.946"
   version="1.1"
   id="svg5"
   xmlns="http://www.w3.org/2000/svg"
   xmlns:svg="http://www.w3.org/2000/svg">
  <defs
     id="defs2" />
  <g
     id="layer1"
     style="display:none"
     transform="translate(-31.919683,-105.22206)">
    <circle
       style="display:none;fill:#008080;stroke-width:0.264583"
       id="path79"
       cx="105"
       cy="148.5"
       r="30.478249" />
    <ellipse
       style="display:none;fill:#ffffff;stroke-width:0.200424"
       id="path241"
       cx="105"
       cy="148.5"
       rx="16.462706"
       ry="16.907642" />
    <path
       id="path79-8"
       style="display:none;fill:#008080;stroke-width:0.264583"
       d="m 78.976575,160.40003 a 30.478249,30.478249 0 0 0 -30.478243,30.47824 30.478249,30.478249 0 0 0 30.478243,30.47824 30.478249,30.478249 0 0 0 30.478245,-30.47824 30.478249,30.478249 0 0 0 -30.478245,-30.47824 z m 0,13.57075 a 16.462706,16.907642 0 0 1 16.462561,16.90749 16.462706,16.907642 0 0 1 -16.462561,16.90801 16.462706,16.907642 0 0 1 -16.462561,-16.90801 16.462706,16.907642 0 0 1 16.462561,-16.90749 z" />
    <path
       id="path79-8-5"
       style="display:none;fill:#008080;stroke-width:0.264583"
       d="m 78.976486,160.40014 a 30.478249,30.478249 0 0 0 -30.478243,30.47824 30.478249,30.478249 0 0 0 30.478243,30.47824 30.478249,30.478249 0 0 0 30.478244,-30.47824 30.478249,30.478249 0 0 0 -30.478244,-30.47824 z m 0,13.57075 a 16.462706,16.907642 0 0 1 16.462561,16.90749 16.462706,16.907642 0 0 1 -16.462561,16.90801 16.462706,16.907642 0 0 1 -16.462561,-16.90801 16.462706,16.907642 0 0 1 16.462561,-16.90749 z" />
    <path
       id="circle532"
       style="fill:#008080;stroke-width:0.264583"
       d="m 90.248565,208.92007 a 30.478249,30.478249 0 0 0 30.478245,-30.47824 30.478249,30.478249 0 0 0 -30.478245,-30.47825 30.478249,30.478249 0 0 0 -0.14883,0.006 v 13.57075 a 16.462706,16.907642 0 0 1 0.14883,-0.006 16.462706,16.907642 0 0 1 16.462565,16.90751 16.462706,16.907642 0 0 1 -16.462565,16.90801 16.462706,16.907642 0 0 1 -16.457916,-16.52716 h -14.01568 a 30.478249,30.478249 0 0 0 30.473596,30.09739 z" />
    <path
       id="circle532-2"
       style="fill:#008080;stroke-width:0.264583"
       d="m 89.964186,117.85491 a 30.478249,30.478249 0 0 0 -30.478252,30.47824 30.478249,30.478249 0 0 0 30.478252,30.47825 30.478249,30.478249 0 0 0 0.14883,-0.006 v -13.57075 a 16.462706,16.907642 0 0 1 -0.14883,0.006 16.462706,16.907642 0 0 1 -16.46257,-16.90751 16.462706,16.907642 0 0 1 16.46257,-16.90801 16.462706,16.907642 0 0 1 16.457924,16.52716 h 14.01567 A 30.478249,30.478249 0 0 0 89.964186,117.8549 Z" />
    <rect
       style="display:inline;fill:#008080;stroke-width:0.267954"
       id="rect347-0"
       width="14.015546"
       height="91.269302"
       x="31.874439"
       y="117.60918" />
  </g>
  <g
     id="layer2"
     style="display:none"
     transform="translate(-31.919683,-105.22206)">
    <path
       id="circle532-2-4"
       style="display:none;fill:#008080;fill-opacity:1;stroke-width:0.264583"
       d="m 105.90833,124.26236 a 30.478249,30.478249 0 0 0 -30.478253,30.47824 30.478249,30.478249 0 0 0 30.478253,30.47825 30.478249,30.478249 0 0 0 0.14883,-0.006 V 171.6421 a 16.462706,16.907642 0 0 1 -0.14883,0.006 16.462706,16.907642 0 0 1 -16.462573,-16.90751 16.462706,16.907642 0 0 1 16.462573,-16.90801 16.462706,16.907642 0 0 1 16.45792,16.52716 h 14.01567 a 30.478249,30.478249 0 0 0 -30.47359,-30.09739 z" />
    <path
       id="path79-8-9-3"
       style="display:none;fill:#008080;stroke-width:0.264583"
       d="m 92.618581,118.55304 a 30.478249,30.478249 0 0 0 -30.478257,30.47824 30.478249,30.478249 0 0 0 30.478257,30.47824 30.478249,30.478249 0 0 0 30.478239,-30.47824 30.478249,30.478249 0 0 0 -30.478239,-30.47824 z m 0,13.57075 a 16.462706,16.907642 0 0 1 16.462559,16.90749 16.462706,16.907642 0 0 1 -16.462559,16.90801 16.462706,16.907642 0 0 1 -16.46256,-16.90801 16.462706,16.907642 0 0 1 16.46256,-16.90749 z" />
    <rect
       style="display:none;fill:#ffffff;fill-opacity:1;stroke-width:0.229974"
       id="rect1270-7"
       width="52.007729"
       height="46.705853"
       x="74.049881"
       y="149.96217" />
    <path
       id="path79-8-9"
       style="display:none;fill:#008080;stroke-width:0.264583"
       d="m 92.640218,166.36727 a 30.478249,30.478249 0 0 0 -30.47824,30.47824 30.478249,30.478249 0 0 0 30.47824,30.47824 30.478249,30.478249 0 0 0 30.478252,-30.47824 30.478249,30.478249 0 0 0 -30.478252,-30.47824 z m 0,13.57075 a 16.462706,16.907642 0 0 1 16.462572,16.90749 16.462706,16.907642 0 0 1 -16.462572,16.90801 16.462706,16.907642 0 0 1 -16.46256,-16.90801 16.462706,16.907642 0 0 1 16.46256,-16.90749 z" />
    <rect
       style="display:inline;fill:#ffffff;fill-opacity:1;stroke-width:0.174441"
       id="rect1270"
       width="36.276798"
       height="38.525768"
       x="44.504086"
       y="148.09923" />
    <path
       id="path79-8-9-0"
       style="display:none;fill:#008080;stroke-width:0.264583"
       d="M 62.346931,135.81732 A 30.478249,30.478249 0 0 0 31.868688,166.29556 30.478249,30.478249 0 0 0 62.346931,196.7738 30.478249,30.478249 0 0 0 92.825173,166.29556 30.478249,30.478249 0 0 0 62.346931,135.81732 Z m 0,13.57075 A 16.462706,16.907642 0 0 1 78.809492,166.29556 16.462706,16.907642 0 0 1 62.346931,183.20357 16.462706,16.907642 0 0 1 45.88437,166.29556 16.462706,16.907642 0 0 1 62.346931,149.38807 Z" />
    <path
       id="circle532-2-4-4"
       style="display:inline;fill:#008080;fill-opacity:1;stroke-width:0.264583"
       d="m 62.302473,227.16781 a 30.478249,30.478249 0 0 0 30.47825,-30.47824 30.478249,30.478249 0 0 0 -30.47825,-30.47825 30.478249,30.478249 0 0 0 -0.14883,0.006 v 13.57075 a 16.462706,16.907642 0 0 1 0.14883,-0.006 16.462706,16.907642 0 0 1 16.46257,16.90751 16.462706,16.907642 0 0 1 -16.46257,16.90801 16.462706,16.907642 0 0 1 -16.45791,-16.52716 h -14.01567 a 30.478249,30.478249 0 0 0 30.47358,30.09739 z" />
    <path
       id="circle532-2-4-4-2"
       style="display:inline;fill:#008080;fill-opacity:1;stroke-width:0.264583"
       d="m 62.399282,135.8364 a 30.478249,30.478249 0 0 0 -30.47825,30.47824 30.478249,30.478249 0 0 0 30.47825,30.47825 30.478249,30.478249 0 0 0 0.14883,-0.006 v -13.57075 a 16.462706,16.907642 0 0 1 -0.14883,0.006 16.462706,16.907642 0 0 1 -16.46257,-16.90751 16.462706,16.907642 0 0 1 16.46257,-16.90801 16.462706,16.907642 0 0 1 16.45792,16.52716 h 14.01567 a 30.478249,30.478249 0 0 0 -30.47359,-30.09739 z" />
    <rect
       style="display:inline;fill:#008080;stroke-width:0.219882"
       id="rect347-0-5"
       width="14.015546"
       height="61.458458"
       x="31.872631"
       y="105.13488" />
  </g>
  <g
     id="g1455"
     style="display:inline"
     transform="translate(-31.919683,-105.22206)">
    <path
       id="path1437"
       style="display:none;fill:#008080;fill-opacity:1;stroke-width:0.264583"
       d="m 105.90833,124.26236 a 30.478249,30.478249 0 0 0 -30.478253,30.47824 30.478249,30.478249 0 0 0 30.478253,30.47825 30.478249,30.478249 0 0 0 0.14883,-0.006 V 171.6421 a 16.462706,16.907642 0 0 1 -0.14883,0.006 16.462706,16.907642 0 0 1 -16.462573,-16.90751 16.462706,16.907642 0 0 1 16.462573,-16.90801 16.462706,16.907642 0 0 1 16.45792,16.52716 h 14.01567 a 30.478249,30.478249 0 0 0 -30.47359,-30.09739 z" />
    <path
       id="path1439"
       style="display:none;fill:#008080;stroke-width:0.264583"
       d="m 92.618581,118.55304 a 30.478249,30.478249 0 0 0 -30.478257,30.47824 30.478249,30.478249 0 0 0 30.478257,30.47824 30.478249,30.478249 0 0 0 30.478239,-30.47824 30.478249,30.478249 0 0 0 -30.478239,-30.47824 z m 0,13.57075 a 16.462706,16.907642 0 0 1 16.462559,16.90749 16.462706,16.907642 0 0 1 -16.462559,16.90801 16.462706,16.907642 0 0 1 -16.46256,-16.90801 16.462706,16.907642 0 0 1 16.46256,-16.90749 z" />
    <rect
       style="display:none;fill:#ffffff;fill-opacity:1;stroke-width:0.229974"
       id="rect1441"
       width="52.007729"
       height="46.705853"
       x="74.049881"
       y="149.96217" />
    <path
       id="path1443"
       style="display:none;fill:#008080;stroke-width:0.264583"
       d="m 92.640218,166.36727 a 30.478249,30.478249 0 0 0 -30.47824,30.47824 30.478249,30.478249 0 0 0 30.47824,30.47824 30.478249,30.478249 0 0 0 30.478252,-30.47824 30.478249,30.478249 0 0 0 -30.478252,-30.47824 z m 0,13.57075 a 16.462706,16.907642 0 0 1 16.462572,16.90749 16.462706,16.907642 0 0 1 -16.462572,16.90801 16.462706,16.907642 0 0 1 -16.46256,-16.90801 16.462706,16.907642 0 0 1 16.46256,-16.90749 z" />
    <rect
       style="display:none;fill:#ffffff;fill-opacity:1;stroke-width:0.174441"
       id="rect1445"
       width="36.276798"
       height="38.525768"
       x="44.504086"
       y="148.09923" />
    <path
       id="path1447"
       style="display:none;fill:#008080;stroke-width:0.264583"
       d="M 62.346931,135.81732 A 30.478249,30.478249 0 0 0 31.868688,166.29556 30.478249,30.478249 0 0 0 62.346931,196.7738 30.478249,30.478249 0 0 0 92.825173,166.29556 30.478249,30.478249 0 0 0 62.346931,135.81732 Z m 0,13.57075 A 16.462706,16.907642 0 0 1 78.809492,166.29556 16.462706,16.907642 0 0 1 62.346931,183.20357 16.462706,16.907642 0 0 1 45.88437,166.29556 16.462706,16.907642 0 0 1 62.346931,149.38807 Z" />
    <path
       id="path1449"
       style="display:inline;fill:#18a999;fill-opacity:1;stroke-width:0.264583"
       d="m 62.472726,105.22665 -0.0021,61.12805 0.0083,0.23875 c -0.034,16.76633 13.489265,30.07433 30.209526,30.0793 l 0.148828,-0.006 v -13.44258 l -0.218986,-0.006 c -9.091987,-8e-5 -16.204097,-7.57804 -16.204179,-16.91576 -2.03e-4,-9.33792 7.370372,-16.90794 16.462561,-16.90802 8.947504,3.5e-4 16.387734,7.75823 16.407184,16.94523 h 13.97021 c -0.01,-16.68194 -13.73216,-30.52299 -30.415396,-30.52424 -5.858626,0.007 -11.482959,1.72265 -16.402976,4.90337 l 0.0058,-35.49669 z m 30.509766,61.1172 -0.148828,0.006 0.0083,13.43019 0.148828,-0.006 c 9.091988,8e-5 16.362228,7.5522 16.362308,16.88992 2e-4,9.33792 -7.41068,16.93377 -16.502868,16.93385 -8.947499,-3.5e-4 -16.406757,-7.74648 -16.409676,-16.93348 H 62.467261 c -0.02539,16.72871 13.688364,30.50247 30.371602,30.50372 16.832667,0 30.479277,-13.67245 30.479277,-30.50512 -1e-5,-16.83267 -13.50295,-30.31908 -30.335616,-30.31908 z" />
  </g>
</svg>
